<?xml version="1.0" standalone="no"?>
<!DOCTYPE svg PUBLIC "-//W3C//DTD SVG 20010904//EN"
 "http://www.w3.org/TR/2001/REC-SVG-20010904/DTD/svg10.dtd">
<svg version="1.0" xmlns="http://www.w3.org/2000/svg"
 width="512.000000pt" height="512.000000pt" viewBox="0 0 512.000000 512.000000"
 preserveAspectRatio="xMidYMid meet">
<metadata>
Created by potrace 1.14, written by Peter Selinger 2001-2017
</metadata>
<g transform="translate(0.000000,512.000000) scale(0.100000,-0.100000)"
fill="#000000" stroke="none">
<path d="M1541 5105 c-224 -49 -398 -159 -528 -335 -219 -294 -219 -711 -1
-1005 140 -189 347 -313 565 -341 l58 -7 -80 -18 c-372 -82 -622 -342 -686
-713 -15 -90 -5 -260 21 -351 91 -319 336 -544 670 -614 52 -11 84 -20 70 -21
-55 -2 -108 -12 -170 -32 -280 -90 -496 -316 -572 -598 -21 -79 -30 -284 -16
-365 61 -347 347 -633 693 -693 76 -13 277 -6 345 11 293 77 518 284 610 560
15 45 31 105 36 132 4 28 8 427 9 887 1 728 4 927 13 822 4 -48 33 -147 63
-212 92 -205 267 -370 474 -448 111 -41 191 -56 305 -55 97 0 126 4 228 32
489 132 752 670 559 1143 -111 272 -360 468 -657 518 l-85 15 65 7 c257 29
514 213 634 453 70 139 91 229 91 393 0 121 -7 169 -40 266 -91 273 -296 467
-587 556 l-73 22 -975 3 c-803 1 -986 -1 -1039 -12z m1755 -1698 c4 -4 -4 -7
-17 -7 -35 0 -145 -33 -214 -64 -180 -82 -339 -241 -421 -421 -32 -70 -73
-214 -66 -235 3 -8 1 -11 -4 -7 -4 4 -8 171 -9 370 0 275 3 363 12 367 19 8
712 5 719 -3z"/>
</g>
</svg>
